<?xml version="1.0" encoding="UTF-8" standalone="no"?>
<!DOCTYPE svg PUBLIC "-//W3C//DTD SVG 1.1//EN"
 "http://www.w3.org/Graphics/SVG/1.1/DTD/svg11.dtd">
<!-- Generated by graphviz version 2.49.3 (20211023.0002)
 -->
<!-- Pages: 1 -->
<svg width="325pt" height="44pt"
 viewBox="0.00 0.00 324.50 44.00" xmlns="http://www.w3.org/2000/svg" xmlns:xlink="http://www.w3.org/1999/xlink">
<g id="graph0" class="graph" transform="scale(1 1) rotate(0) translate(4 40)">
<polygon fill="white" stroke="transparent" points="-4,4 -4,-40 320.5,-40 320.5,4 -4,4"/>
<!-- Frontend -->
<g id="node1" class="node">
<title>Frontend</title>
<polygon fill="none" stroke="black" points="67,-36 0,-36 0,0 67,0 67,-36"/>
<text text-anchor="middle" x="33.5" y="-14.3" font-family="Times,serif" font-size="14.00">Frontend</text>
</g>
<!-- BFF -->
<g id="node2" class="node">
<title>BFF</title>
<polygon fill="none" stroke="black" points="191.5,-36 137.5,-36 137.5,0 191.5,0 191.5,-36"/>
<text text-anchor="middle" x="164.5" y="-14.3" font-family="Times,serif" font-size="14.00">BFF</text>
</g>
<!-- Frontend&#45;&gt;BFF -->
<g id="edge1" class="edge">
<title>Frontend&#45;&gt;BFF</title>
<path fill="none" stroke="black" d="M67.24,-18C85.66,-18 108.5,-18 127.42,-18"/>
<polygon fill="black" stroke="black" points="127.48,-21.5 137.48,-18 127.48,-14.5 127.48,-21.5"/>
<text text-anchor="start" x="75.75" y="-50.6" font-family="Times,serif" font-size="8.00">{</text>
<text text-anchor="start" x="75.75" y="-41.6" font-family="Times,serif" font-size="8.00"> &#160;&#160;clientid=fe; </text>
<text text-anchor="start" x="75.75" y="-32.6" font-family="Times,serif" font-size="8.00"> &#160;&#160;audience=bff; </text>
<text text-anchor="start" x="75.75" y="-23.6" font-family="Times,serif" font-size="8.00">}</text>
</g>
<!-- API -->
<g id="node3" class="node">
<title>API</title>
<polygon fill="none" stroke="black" points="316.5,-36 262.5,-36 262.5,0 316.5,0 316.5,-36"/>
<text text-anchor="middle" x="289.5" y="-14.3" font-family="Times,serif" font-size="14.00">API</text>
</g>
<!-- BFF&#45;&gt;API -->
<g id="edge2" class="edge">
<title>BFF&#45;&gt;API</title>
<path fill="none" stroke="black" d="M191.62,-18C209.4,-18 232.86,-18 252.36,-18"/>
<polygon fill="black" stroke="black" points="252.43,-21.5 262.43,-18 252.43,-14.5 252.43,-21.5"/>
<text text-anchor="start" x="200.5" y="-50.6" font-family="Times,serif" font-size="8.00">{</text>
<text text-anchor="start" x="200.5" y="-41.6" font-family="Times,serif" font-size="8.00"> &#160;&#160;clientid=fe; </text>
<text text-anchor="start" x="200.5" y="-32.6" font-family="Times,serif" font-size="8.00"> &#160;&#160;audience=bff; </text>
<text text-anchor="start" x="200.5" y="-23.6" font-family="Times,serif" font-size="8.00">}</text>
</g>
</g>
</svg>
