<?xml version="1.0" encoding="UTF-8" standalone="no"?>
<!DOCTYPE svg PUBLIC "-//W3C//DTD SVG 1.1//EN"
 "http://www.w3.org/Graphics/SVG/1.1/DTD/svg11.dtd">
<!-- Generated by graphviz version 2.49.3 (20211023.0002)
 -->
<!-- Pages: 1 -->
<svg width="399pt" height="161pt"
 viewBox="0.00 0.00 399.20 161.00" xmlns="http://www.w3.org/2000/svg" xmlns:xlink="http://www.w3.org/1999/xlink">
<g id="graph0" class="graph" transform="scale(1 1) rotate(0) translate(4 157)">
<polygon fill="white" stroke="transparent" points="-4,4 -4,-157 395.2,-157 395.2,4 -4,4"/>
<!-- rank1 -->
<!-- rank2 -->
<!-- rank1&#45;&gt;rank2 -->
<!-- KeyCloak -->
<g id="node2" class="node">
<title>KeyCloak</title>
<path fill="none" stroke="black" d="M277.7,-149.73C277.7,-151.53 261.34,-153 241.2,-153 221.06,-153 204.7,-151.53 204.7,-149.73 204.7,-149.73 204.7,-120.27 204.7,-120.27 204.7,-118.47 221.06,-117 241.2,-117 261.34,-117 277.7,-118.47 277.7,-120.27 277.7,-120.27 277.7,-149.73 277.7,-149.73"/>
<path fill="none" stroke="black" d="M277.7,-149.73C277.7,-147.92 261.34,-146.45 241.2,-146.45 221.06,-146.45 204.7,-147.92 204.7,-149.73"/>
<text text-anchor="middle" x="241.2" y="-131.3" font-family="Times,serif" font-size="14.00">KeyCloak</text>
</g>
<!-- Frontend -->
<g id="node3" class="node">
<title>Frontend</title>
<polygon fill="none" stroke="black" points="147.7,-36 80.7,-36 80.7,0 147.7,0 147.7,-36"/>
<text text-anchor="middle" x="114.2" y="-14.3" font-family="Times,serif" font-size="14.00">Frontend</text>
</g>
<!-- BFF -->
<g id="node4" class="node">
<title>BFF</title>
<polygon fill="none" stroke="black" points="268.2,-36 214.2,-36 214.2,0 268.2,0 268.2,-36"/>
<text text-anchor="middle" x="241.2" y="-14.3" font-family="Times,serif" font-size="14.00">BFF</text>
</g>
<!-- Frontend&#45;&gt;BFF -->
<g id="edge2" class="edge">
<title>Frontend&#45;&gt;BFF</title>
<path fill="none" stroke="black" d="M147.9,-18C165.22,-18 186.37,-18 204.15,-18"/>
<polygon fill="black" stroke="black" points="204.18,-21.5 214.18,-18 204.18,-14.5 204.18,-21.5"/>
<text text-anchor="start" x="156.45" y="-50.6" font-family="Times,serif" font-size="8.00">{</text>
<text text-anchor="start" x="156.45" y="-41.6" font-family="Times,serif" font-size="8.00"> clientid=fe; </text>
<text text-anchor="start" x="156.45" y="-32.6" font-family="Times,serif" font-size="8.00"> audience=bff; </text>
<text text-anchor="start" x="156.45" y="-23.6" font-family="Times,serif" font-size="8.00">}</text>
</g>
<!-- BFF&#45;&gt;KeyCloak -->
<g id="edge3" class="edge">
<title>BFF&#45;&gt;KeyCloak</title>
<path fill="none" stroke="black" d="M241.2,-46.44C241.2,-64.52 241.2,-88.11 241.2,-106.25"/>
<polygon fill="black" stroke="black" points="244.7,-46.25 241.2,-36.25 237.7,-46.25 244.7,-46.25"/>
<polygon fill="black" stroke="black" points="237.7,-106.53 241.2,-116.53 244.7,-106.53 237.7,-106.53"/>
<text text-anchor="start" x="241.2" y="-92.6" font-family="Times,serif" font-size="8.00">{</text>
<text text-anchor="start" x="241.2" y="-83.6" font-family="Times,serif" font-size="8.00"> &#160;granttype=client_credentials; </text>
<text text-anchor="start" x="241.2" y="-74.6" font-family="Times,serif" font-size="8.00"> &#160;clientid=fe; </text>
<text text-anchor="start" x="241.2" y="-65.6" font-family="Times,serif" font-size="8.00"> &#160;scope=api; </text>
<text text-anchor="start" x="241.2" y="-56.6" font-family="Times,serif" font-size="8.00">}</text>
</g>
<!-- API -->
<g id="node5" class="node">
<title>API</title>
<polygon fill="none" stroke="black" points="391.2,-36 337.2,-36 337.2,0 391.2,0 391.2,-36"/>
<text text-anchor="middle" x="364.2" y="-14.3" font-family="Times,serif" font-size="14.00">API</text>
</g>
<!-- BFF&#45;&gt;API -->
<g id="edge4" class="edge">
<title>BFF&#45;&gt;API</title>
<path fill="none" stroke="black" d="M268.49,-18C285.69,-18 308.12,-18 326.95,-18"/>
<polygon fill="black" stroke="black" points="326.98,-21.5 336.98,-18 326.98,-14.5 326.98,-21.5"/>
<text text-anchor="start" x="277.2" y="-50.6" font-family="Times,serif" font-size="8.00">{</text>
<text text-anchor="start" x="277.2" y="-41.6" font-family="Times,serif" font-size="8.00"> &#160;clientid=api; </text>
<text text-anchor="start" x="277.2" y="-32.6" font-family="Times,serif" font-size="8.00"> &#160;audience=api; </text>
<text text-anchor="start" x="277.2" y="-23.6" font-family="Times,serif" font-size="8.00">}</text>
</g>
</g>
</svg>
