<?xml version="1.0" encoding="UTF-8" standalone="no"?>
<!DOCTYPE svg PUBLIC "-//W3C//DTD SVG 1.1//EN"
 "http://www.w3.org/Graphics/SVG/1.1/DTD/svg11.dtd">
<!-- Generated by graphviz version 2.49.3 (20211023.0002)
 -->
<!-- Pages: 1 -->
<svg width="332pt" height="198pt"
 viewBox="0.00 0.00 332.00 198.00" xmlns="http://www.w3.org/2000/svg" xmlns:xlink="http://www.w3.org/1999/xlink">
<g id="graph0" class="graph" transform="scale(1 1) rotate(0) translate(4 194)">
<polygon fill="white" stroke="transparent" points="-4,4 -4,-194 328,-194 328,4 -4,4"/>
<!-- ZaakSysteem -->
<g id="node1" class="node">
<title>ZaakSysteem</title>
<polygon fill="none" stroke="black" points="144,-190 0,-190 0,-154 144,-154 144,-190"/>
<text text-anchor="middle" x="72" y="-168.3" font-family="Times,serif" font-size="14.00">ZaakSysteem</text>
</g>
<!-- Consistency -->
<g id="node2" class="node">
<title>Consistency</title>
<polygon fill="none" stroke="black" points="144,-109 0,-109 0,-73 144,-73 144,-109"/>
<text text-anchor="middle" x="72" y="-87.3" font-family="Times,serif" font-size="14.00">Consistency</text>
</g>
<!-- ZaakSysteem&#45;&gt;Consistency -->
<g id="edge1" class="edge">
<title>ZaakSysteem&#45;&gt;Consistency</title>
<path fill="none" stroke="black" d="M72,-153.86C72,-143.71 72,-130.63 72,-119.12"/>
<polygon fill="black" stroke="black" points="75.5,-119.11 72,-109.11 68.5,-119.11 75.5,-119.11"/>
<text text-anchor="middle" x="94.5" y="-129.6" font-family="Times,serif" font-size="8.00">ZaakUpdate()</text>
</g>
<!-- sendMail -->
<g id="node3" class="node">
<title>sendMail</title>
<polygon fill="none" stroke="black" points="324,-109 180,-109 180,-73 324,-73 324,-109"/>
<text text-anchor="middle" x="252" y="-87.3" font-family="Times,serif" font-size="14.00">sendMail</text>
</g>
<!-- Consistency&#45;&gt;sendMail -->
<g id="edge2" class="edge">
<title>Consistency&#45;&gt;sendMail</title>
<path fill="none" stroke="black" d="M144.07,-91C152.66,-91 161.24,-91 169.83,-91"/>
<polygon fill="black" stroke="black" points="169.91,-94.5 179.91,-91 169.91,-87.5 169.91,-94.5"/>
</g>
<!-- Openzaak -->
<g id="node4" class="node">
<title>Openzaak</title>
<polygon fill="none" stroke="black" points="144,-36 0,-36 0,0 144,0 144,-36"/>
<text text-anchor="middle" x="72" y="-14.3" font-family="Times,serif" font-size="14.00">Openzaak</text>
</g>
<!-- Consistency&#45;&gt;Openzaak -->
<g id="edge3" class="edge">
<title>Consistency&#45;&gt;Openzaak</title>
<path fill="none" stroke="black" d="M72,-72.81C72,-64.79 72,-55.05 72,-46.07"/>
<polygon fill="black" stroke="black" points="75.5,-46.03 72,-36.03 68.5,-46.03 75.5,-46.03"/>
</g>
</g>
</svg>
