<?xml version="1.0" encoding="UTF-8" standalone="no"?>
<!DOCTYPE svg PUBLIC "-//W3C//DTD SVG 1.1//EN"
 "http://www.w3.org/Graphics/SVG/1.1/DTD/svg11.dtd">
<!-- Generated by graphviz version 2.49.3 (20211023.0002)
 -->
<!-- Pages: 1 -->
<svg width="717pt" height="300pt"
 viewBox="0.00 0.00 717.26 300.00" xmlns="http://www.w3.org/2000/svg" xmlns:xlink="http://www.w3.org/1999/xlink">
<g id="graph0" class="graph" transform="scale(1 1) rotate(0) translate(4 296)">
<polygon fill="white" stroke="transparent" points="-4,4 -4,-296 713.26,-296 713.26,4 -4,4"/>
<g id="clust2" class="cluster">
<title>cluster_0</title>
<polygon fill="none" stroke="black" points="8,-209 8,-284 425.57,-284 425.57,-209 8,-209"/>
<text text-anchor="middle" x="216.79" y="-268.8" font-family="Times,serif" font-size="14.00">Gebruiker</text>
</g>
<g id="clust3" class="cluster">
<title>cluster_1</title>
<polygon fill="none" stroke="black" points="304.28,-8 304.28,-137 701.26,-137 701.26,-8 304.28,-8"/>
<text text-anchor="middle" x="502.77" y="-121.8" font-family="Times,serif" font-size="14.00">Proces</text>
</g>
<!-- ObjectApi -->
<g id="node1" class="node">
<title>ObjectApi</title>
<ellipse fill="none" stroke="black" cx="622.41" cy="-235" rx="48.99" ry="18"/>
<text text-anchor="middle" x="622.41" y="-231.3" font-family="Times,serif" font-size="14.00">ObjectApi</text>
</g>
<!-- OpenNotificatie -->
<g id="node2" class="node">
<title>OpenNotificatie</title>
<ellipse fill="none" stroke="black" cx="622.41" cy="-163" rx="69.59" ry="18"/>
<text text-anchor="middle" x="622.41" y="-159.3" font-family="Times,serif" font-size="14.00">OpenNotificatie</text>
</g>
<!-- ObjectApi&#45;&gt;OpenNotificatie -->
<g id="edge1" class="edge">
<title>ObjectApi&#45;&gt;OpenNotificatie</title>
<path fill="none" stroke="black" d="M622.41,-216.86C622.41,-208.27 622.41,-199.68 622.41,-191.09"/>
<polygon fill="black" stroke="black" points="625.91,-191 622.41,-181 618.91,-191 625.91,-191"/>
</g>
<!-- GZAC -->
<g id="node6" class="node">
<title>GZAC</title>
<ellipse fill="none" stroke="black" cx="348.03" cy="-88" rx="36" ry="18"/>
<text text-anchor="middle" x="348.03" y="-84.3" font-family="Times,serif" font-size="14.00">GZAC</text>
</g>
<!-- OpenNotificatie&#45;&gt;GZAC -->
<g id="edge5" class="edge">
<title>OpenNotificatie&#45;&gt;GZAC</title>
<path fill="none" stroke="black" d="M573.93,-149.93C521.7,-135.54 438.64,-112.67 389.41,-99.12"/>
<polygon fill="black" stroke="black" points="390.31,-95.74 379.74,-96.46 388.46,-102.49 390.31,-95.74"/>
</g>
<!-- Gebruiker -->
<g id="node3" class="node">
<title>Gebruiker</title>
<ellipse fill="none" stroke="black" cx="63.45" cy="-235" rx="47.39" ry="18"/>
<text text-anchor="middle" x="63.45" y="-231.3" font-family="Times,serif" font-size="14.00">Gebruiker</text>
</g>
<!-- Formulier -->
<g id="node4" class="node">
<title>Formulier</title>
<ellipse fill="none" stroke="black" cx="194.69" cy="-235" rx="46.59" ry="18"/>
<text text-anchor="middle" x="194.69" y="-231.3" font-family="Times,serif" font-size="14.00">Formulier</text>
</g>
<!-- Gebruiker&#45;&gt;Formulier -->
<g id="edge2" class="edge">
<title>Gebruiker&#45;&gt;Formulier</title>
<path fill="none" stroke="black" d="M111.1,-235C119.63,-235 128.6,-235 137.37,-235"/>
<polygon fill="black" stroke="black" points="137.53,-238.5 147.53,-235 137.53,-231.5 137.53,-238.5"/>
</g>
<!-- FormulierenApi -->
<g id="node5" class="node">
<title>FormulierenApi</title>
<ellipse fill="none" stroke="black" cx="348.03" cy="-235" rx="69.59" ry="18"/>
<text text-anchor="middle" x="348.03" y="-231.3" font-family="Times,serif" font-size="14.00">FormulierenApi</text>
</g>
<!-- Formulier&#45;&gt;FormulierenApi -->
<g id="edge3" class="edge">
<title>Formulier&#45;&gt;FormulierenApi</title>
<path fill="none" stroke="black" d="M241.51,-235C250.07,-235 259.23,-235 268.46,-235"/>
<polygon fill="black" stroke="black" points="268.47,-238.5 278.47,-235 268.47,-231.5 268.47,-238.5"/>
</g>
<!-- FormulierenApi&#45;&gt;ObjectApi -->
<g id="edge4" class="edge">
<title>FormulierenApi&#45;&gt;ObjectApi</title>
<path fill="none" stroke="black" d="M417.76,-235C462.61,-235 520.5,-235 563.1,-235"/>
<polygon fill="black" stroke="black" points="563.31,-238.5 573.31,-235 563.31,-231.5 563.31,-238.5"/>
<text text-anchor="middle" x="484.57" y="-238.8" font-family="Times,serif" font-size="14.00">ProductAanvraag</text>
</g>
<!-- GZAC&#45;&gt;ObjectApi -->
<g id="edge6" class="edge">
<title>GZAC&#45;&gt;ObjectApi</title>
<path fill="none" stroke="black" d="M380.23,-106.96C396.59,-116.75 417.02,-128.75 435.57,-139 486.12,-166.92 545.58,-197.2 583.38,-216.13"/>
<polygon fill="black" stroke="black" points="381.98,-103.92 371.6,-101.77 378.37,-109.92 381.98,-103.92"/>
<polygon fill="black" stroke="black" points="581.99,-219.35 592.5,-220.69 585.12,-213.09 581.99,-219.35"/>
</g>
<!-- DocumentenApi -->
<g id="node7" class="node">
<title>DocumentenApi</title>
<ellipse fill="none" stroke="black" cx="622.41" cy="-34" rx="70.69" ry="18"/>
<text text-anchor="middle" x="622.41" y="-30.3" font-family="Times,serif" font-size="14.00">DocumentenApi</text>
</g>
<!-- GZAC&#45;&gt;DocumentenApi -->
<g id="edge7" class="edge">
<title>GZAC&#45;&gt;DocumentenApi</title>
<path fill="none" stroke="black" d="M381.61,-81.54C424.55,-73.03 501.07,-57.86 556.14,-46.94"/>
<polygon fill="black" stroke="black" points="557.03,-50.33 566.16,-44.96 555.67,-43.47 557.03,-50.33"/>
</g>
<!-- Openzaak -->
<g id="node8" class="node">
<title>Openzaak</title>
<ellipse fill="none" stroke="black" cx="622.41" cy="-88" rx="46.59" ry="18"/>
<text text-anchor="middle" x="622.41" y="-84.3" font-family="Times,serif" font-size="14.00">Openzaak</text>
</g>
<!-- GZAC&#45;&gt;Openzaak -->
<g id="edge8" class="edge">
<title>GZAC&#45;&gt;Openzaak</title>
<path fill="none" stroke="black" d="M383.8,-88C429.61,-88 510.74,-88 565.29,-88"/>
<polygon fill="black" stroke="black" points="565.49,-91.5 575.49,-88 565.49,-84.5 565.49,-91.5"/>
</g>
</g>
</svg>
