<?xml version="1.0" encoding="UTF-8" standalone="no"?>
<!DOCTYPE svg PUBLIC "-//W3C//DTD SVG 1.1//EN"
 "http://www.w3.org/Graphics/SVG/1.1/DTD/svg11.dtd">
<!-- Generated by graphviz version 2.49.3 (20211023.0002)
 -->
<!-- Pages: 1 -->
<svg width="652pt" height="422pt"
 viewBox="0.00 0.00 652.00 422.00" xmlns="http://www.w3.org/2000/svg" xmlns:xlink="http://www.w3.org/1999/xlink">
<g id="graph0" class="graph" transform="scale(1 1) rotate(0) translate(4 418)">
<polygon fill="white" stroke="transparent" points="-4,4 -4,-418 648,-418 648,4 -4,4"/>
<g id="clust2" class="cluster">
<title>cluster_cvs</title>
<polygon fill="none" stroke="black" points="22,-95 22,-264 182,-264 182,-95 22,-95"/>
<text text-anchor="middle" x="49.5" y="-244" font-family="Times,serif" font-size="20.00">CVS</text>
</g>
<g id="clust3" class="cluster">
<title>cluster_zgw</title>
<polygon fill="none" stroke="black" points="369,-8 369,-264 542,-264 542,-8 369,-8"/>
<text text-anchor="middle" x="400" y="-244" font-family="Times,serif" font-size="20.00">ZGW</text>
</g>
<!-- helper1 -->
<!-- helper2 -->
<!-- helper1&#45;&gt;helper2 -->
<!-- PDC -->
<g id="node5" class="node">
<title>PDC</title>
<polygon fill="none" stroke="black" points="174,-226 30,-226 30,-190 174,-190 174,-226"/>
<text text-anchor="middle" x="102" y="-204.3" font-family="Times,serif" font-size="14.00">PDC</text>
</g>
<!-- helper1&#45;&gt;PDC -->
<!-- helper3 -->
<!-- helper2&#45;&gt;helper3 -->
<!-- Portal -->
<g id="node9" class="node">
<title>Portal</title>
<polygon fill="none" stroke="black" points="390,-341 246,-341 246,-305 390,-305 390,-341"/>
<text text-anchor="middle" x="318" y="-319.3" font-family="Times,serif" font-size="14.00">Portal</text>
</g>
<!-- helper2&#45;&gt;Portal -->
<!-- OpenFormulieren -->
<g id="node6" class="node">
<title>OpenFormulieren</title>
<polygon fill="none" stroke="black" points="527,-226 383,-226 383,-190 527,-190 527,-226"/>
<text text-anchor="middle" x="455" y="-204.3" font-family="Times,serif" font-size="14.00">OpenFormulieren</text>
</g>
<!-- helper3&#45;&gt;OpenFormulieren -->
<!-- CVS -->
<g id="node4" class="node">
<title>CVS</title>
<polygon fill="none" stroke="black" points="174,-139 30,-139 30,-103 174,-103 174,-139"/>
<text text-anchor="middle" x="102" y="-117.3" font-family="Times,serif" font-size="14.00">CVS</text>
</g>
<!-- ObjectApi -->
<g id="node7" class="node">
<title>ObjectApi</title>
<polygon fill="none" stroke="black" points="521,-139 377,-139 377,-103 521,-103 521,-139"/>
<text text-anchor="middle" x="449" y="-117.3" font-family="Times,serif" font-size="14.00">ObjectApi</text>
</g>
<!-- CVS&#45;&gt;ObjectApi -->
<g id="edge13" class="edge">
<title>CVS&#45;&gt;ObjectApi</title>
<path fill="none" stroke="black" d="M184.64,-121C239.69,-121 311.74,-121 366.71,-121"/>
<polygon fill="black" stroke="black" points="184.32,-117.5 174.32,-121 184.32,-124.5 184.32,-117.5"/>
<polygon fill="black" stroke="black" points="366.77,-124.5 376.77,-121 366.77,-117.5 366.77,-124.5"/>
<text text-anchor="middle" x="275.5" y="-127.8" font-family="Times,serif" font-size="14.00">8 Haalt ingevulde waardes op</text>
</g>
<!-- PDC&#45;&gt;CVS -->
<g id="edge3" class="edge">
<title>PDC&#45;&gt;CVS</title>
<path fill="none" stroke="black" d="M102,-189.8C102,-178.16 102,-162.55 102,-149.24"/>
<polygon fill="black" stroke="black" points="105.5,-149.18 102,-139.18 98.5,-149.18 105.5,-149.18"/>
</g>
<!-- OpenFormulieren&#45;&gt;ObjectApi -->
<g id="edge11" class="edge">
<title>OpenFormulieren&#45;&gt;ObjectApi</title>
<path fill="none" stroke="black" d="M453.79,-189.8C452.96,-178.16 451.86,-162.55 450.92,-149.24"/>
<polygon fill="black" stroke="black" points="454.41,-148.9 450.21,-139.18 447.43,-149.4 454.41,-148.9"/>
<text text-anchor="middle" x="506.5" y="-160.8" font-family="Times,serif" font-size="14.00">5 ProductAanvraag</text>
</g>
<!-- OpenNotificatie -->
<g id="node8" class="node">
<title>OpenNotificatie</title>
<polygon fill="none" stroke="black" points="521,-52 377,-52 377,-16 521,-16 521,-52"/>
<text text-anchor="middle" x="449" y="-30.3" font-family="Times,serif" font-size="14.00">OpenNotificatie</text>
</g>
<!-- ObjectApi&#45;&gt;OpenNotificatie -->
<g id="edge12" class="edge">
<title>ObjectApi&#45;&gt;OpenNotificatie</title>
<path fill="none" stroke="black" d="M449,-102.8C449,-91.16 449,-75.55 449,-62.24"/>
<polygon fill="black" stroke="black" points="452.5,-62.18 449,-52.18 445.5,-62.18 452.5,-62.18"/>
<text text-anchor="middle" x="509.5" y="-73.8" font-family="Times,serif" font-size="14.00">6 Nieuwe Aanvraag()</text>
</g>
<!-- OpenNotificatie&#45;&gt;CVS -->
<g id="edge14" class="edge">
<title>OpenNotificatie&#45;&gt;CVS</title>
<path fill="none" stroke="black" d="M379.31,-52.07C322.16,-66.07 241.25,-85.89 181.57,-100.51"/>
<polygon fill="black" stroke="black" points="180.68,-97.12 171.8,-102.9 182.35,-103.92 180.68,-97.12"/>
<text text-anchor="middle" x="331.5" y="-73.8" font-family="Times,serif" font-size="14.00">7 Notificatie</text>
</g>
<!-- Portal&#45;&gt;PDC -->
<g id="edge7" class="edge">
<title>Portal&#45;&gt;PDC</title>
<path fill="none" stroke="black" d="M235.89,-315.68C191.1,-310.61 141.49,-301.81 125,-287 110.82,-274.27 105.2,-253.28 103.05,-236.27"/>
<polygon fill="black" stroke="black" points="235.64,-319.17 245.96,-316.76 236.39,-312.21 235.64,-319.17"/>
<polygon fill="black" stroke="black" points="106.54,-235.95 102.12,-226.31 99.57,-236.6 106.54,-235.95"/>
<text text-anchor="middle" x="212.5" y="-275.8" font-family="Times,serif" font-size="14.00">1 geefFormulierIdVoor(WMO)</text>
</g>
<!-- Portal&#45;&gt;OpenFormulieren -->
<g id="edge8" class="edge">
<title>Portal&#45;&gt;OpenFormulieren</title>
<path fill="none" stroke="black" d="M309.81,-294.95C308.94,-287.03 309.65,-278.71 314,-272 327.65,-250.94 350.17,-236.86 373.25,-227.47"/>
<polygon fill="black" stroke="black" points="306.4,-295.78 311.69,-304.96 313.28,-294.48 306.4,-295.78"/>
<polygon fill="black" stroke="black" points="374.69,-230.67 382.8,-223.85 372.21,-224.12 374.69,-230.67"/>
<text text-anchor="middle" x="369.5" y="-275.8" font-family="Times,serif" font-size="14.00">2 geefFormulier(id)</text>
</g>
<!-- Portal&#45;&gt;OpenFormulieren -->
<g id="edge10" class="edge">
<title>Portal&#45;&gt;OpenFormulieren</title>
<path fill="none" stroke="black" d="M390.24,-310.5C404.87,-305.32 419.08,-297.84 430,-287 443.41,-273.69 449.64,-253.18 452.52,-236.53"/>
<polygon fill="black" stroke="black" points="456.04,-236.65 453.98,-226.26 449.11,-235.67 456.04,-236.65"/>
<text text-anchor="middle" x="498" y="-275.8" font-family="Times,serif" font-size="14.00">4 ingevuld formulier</text>
</g>
<!-- Portal&#45;&gt;Portal -->
<g id="edge9" class="edge">
<title>Portal&#45;&gt;Portal</title>
<path fill="none" stroke="black" d="M390.17,-329.72C410.44,-329.42 426,-327.18 426,-323 426,-319.57 415.53,-317.44 400.58,-316.63"/>
<polygon fill="black" stroke="black" points="400.29,-313.12 390.17,-316.28 400.05,-320.11 400.29,-313.12"/>
<text text-anchor="middle" x="493.5" y="-319.3" font-family="Times,serif" font-size="14.00">3 gebruiker vult form in</text>
</g>
</g>
</svg>
