<?xml version="1.0" encoding="UTF-8" standalone="no"?>
<!DOCTYPE svg PUBLIC "-//W3C//DTD SVG 1.1//EN"
 "http://www.w3.org/Graphics/SVG/1.1/DTD/svg11.dtd">
<!-- Generated by graphviz version 2.49.3 (20211023.0002)
 -->
<!-- Pages: 1 -->
<svg width="617pt" height="282pt"
 viewBox="0.00 0.00 617.26 282.00" xmlns="http://www.w3.org/2000/svg" xmlns:xlink="http://www.w3.org/1999/xlink">
<g id="graph0" class="graph" transform="scale(1 1) rotate(0) translate(4 278)">
<polygon fill="white" stroke="transparent" points="-4,4 -4,-278 613.26,-278 613.26,4 -4,4"/>
<g id="clust2" class="cluster">
<title>cluster_0</title>
<polygon fill="none" stroke="black" points="8,-191 8,-266 423.57,-266 423.57,-191 8,-191"/>
<text text-anchor="middle" x="215.79" y="-250.8" font-family="Times,serif" font-size="14.00">Gebruiker</text>
</g>
<g id="clust3" class="cluster">
<title>cluster_1</title>
<polygon fill="none" stroke="black" points="302.28,-8 302.28,-137 601.26,-137 601.26,-8 302.28,-8"/>
<text text-anchor="middle" x="451.77" y="-121.8" font-family="Times,serif" font-size="14.00">Proces</text>
</g>
<!-- ObjectApi -->
<g id="node1" class="node">
<title>ObjectApi</title>
<ellipse fill="none" stroke="black" cx="522.41" cy="-217" rx="48.99" ry="18"/>
<text text-anchor="middle" x="522.41" y="-213.3" font-family="Times,serif" font-size="14.00">ObjectApi</text>
</g>
<!-- OpenNotificatie -->
<g id="node2" class="node">
<title>OpenNotificatie</title>
<ellipse fill="none" stroke="black" cx="522.41" cy="-163" rx="69.59" ry="18"/>
<text text-anchor="middle" x="522.41" y="-159.3" font-family="Times,serif" font-size="14.00">OpenNotificatie</text>
</g>
<!-- ObjectApi&#45;&gt;OpenNotificatie -->
<g id="edge1" class="edge">
<title>ObjectApi&#45;&gt;OpenNotificatie</title>
<path fill="none" stroke="black" d="M522.41,-198.79C522.41,-196.31 522.41,-193.83 522.41,-191.34"/>
<polygon fill="black" stroke="black" points="525.91,-191.14 522.41,-181.14 518.91,-191.14 525.91,-191.14"/>
</g>
<!-- GZAC -->
<g id="node6" class="node">
<title>GZAC</title>
<ellipse fill="none" stroke="black" cx="346.03" cy="-88" rx="36" ry="18"/>
<text text-anchor="middle" x="346.03" y="-84.3" font-family="Times,serif" font-size="14.00">GZAC</text>
</g>
<!-- OpenNotificatie&#45;&gt;GZAC -->
<g id="edge5" class="edge">
<title>OpenNotificatie&#45;&gt;GZAC</title>
<path fill="none" stroke="black" d="M475.2,-149.62C467.24,-146.98 459.1,-144.07 451.57,-141 426.73,-130.87 399.76,-117.12 379.43,-106.17"/>
<polygon fill="black" stroke="black" points="381.05,-103.06 370.59,-101.35 377.7,-109.21 381.05,-103.06"/>
</g>
<!-- Gebruiker -->
<g id="node3" class="node">
<title>Gebruiker</title>
<ellipse fill="none" stroke="black" cx="63.45" cy="-217" rx="47.39" ry="18"/>
<text text-anchor="middle" x="63.45" y="-213.3" font-family="Times,serif" font-size="14.00">Gebruiker</text>
</g>
<!-- Formulier -->
<g id="node4" class="node">
<title>Formulier</title>
<ellipse fill="none" stroke="black" cx="193.69" cy="-217" rx="46.59" ry="18"/>
<text text-anchor="middle" x="193.69" y="-213.3" font-family="Times,serif" font-size="14.00">Formulier</text>
</g>
<!-- Gebruiker&#45;&gt;Formulier -->
<g id="edge2" class="edge">
<title>Gebruiker&#45;&gt;Formulier</title>
<path fill="none" stroke="black" d="M111.11,-217C119.35,-217 128.02,-217 136.5,-217"/>
<polygon fill="black" stroke="black" points="136.7,-220.5 146.7,-217 136.7,-213.5 136.7,-220.5"/>
</g>
<!-- FormulierenApi -->
<g id="node5" class="node">
<title>FormulierenApi</title>
<ellipse fill="none" stroke="black" cx="346.03" cy="-217" rx="69.59" ry="18"/>
<text text-anchor="middle" x="346.03" y="-213.3" font-family="Times,serif" font-size="14.00">FormulierenApi</text>
</g>
<!-- Formulier&#45;&gt;FormulierenApi -->
<g id="edge3" class="edge">
<title>Formulier&#45;&gt;FormulierenApi</title>
<path fill="none" stroke="black" d="M240.61,-217C248.74,-217 257.41,-217 266.15,-217"/>
<polygon fill="black" stroke="black" points="266.41,-220.5 276.41,-217 266.41,-213.5 266.41,-220.5"/>
</g>
<!-- FormulierenApi&#45;&gt;ObjectApi -->
<g id="edge4" class="edge">
<title>FormulierenApi&#45;&gt;ObjectApi</title>
<path fill="none" stroke="black" d="M415.95,-217C431.65,-217 448.18,-217 463.38,-217"/>
<polygon fill="black" stroke="black" points="463.66,-220.5 473.66,-217 463.66,-213.5 463.66,-220.5"/>
</g>
<!-- GZAC&#45;&gt;ObjectApi -->
<g id="edge6" class="edge">
<title>GZAC&#45;&gt;ObjectApi</title>
<path fill="none" stroke="black" d="M360.27,-104.59C378.69,-126.71 414.02,-165.88 451.57,-190 458.73,-194.6 466.78,-198.61 474.82,-202.03"/>
<polygon fill="black" stroke="black" points="473.59,-205.31 484.18,-205.78 476.2,-198.81 473.59,-205.31"/>
</g>
<!-- DocumentenApi -->
<g id="node7" class="node">
<title>DocumentenApi</title>
<ellipse fill="none" stroke="black" cx="522.41" cy="-34" rx="70.69" ry="18"/>
<text text-anchor="middle" x="522.41" y="-30.3" font-family="Times,serif" font-size="14.00">DocumentenApi</text>
</g>
<!-- GZAC&#45;&gt;DocumentenApi -->
<g id="edge7" class="edge">
<title>GZAC&#45;&gt;DocumentenApi</title>
<path fill="none" stroke="black" d="M377.01,-78.72C401.68,-71.08 437.29,-60.05 466.98,-50.86"/>
<polygon fill="black" stroke="black" points="468.28,-54.12 476.8,-47.82 466.21,-47.43 468.28,-54.12"/>
</g>
<!-- Openzaak -->
<g id="node8" class="node">
<title>Openzaak</title>
<ellipse fill="none" stroke="black" cx="522.41" cy="-88" rx="46.59" ry="18"/>
<text text-anchor="middle" x="522.41" y="-84.3" font-family="Times,serif" font-size="14.00">Openzaak</text>
</g>
<!-- GZAC&#45;&gt;Openzaak -->
<g id="edge8" class="edge">
<title>GZAC&#45;&gt;Openzaak</title>
<path fill="none" stroke="black" d="M381.9,-88C405.69,-88 437.74,-88 465.12,-88"/>
<polygon fill="black" stroke="black" points="465.36,-91.5 475.36,-88 465.36,-84.5 465.36,-91.5"/>
</g>
</g>
</svg>
