<?xml version="1.0" encoding="UTF-8" standalone="no"?>
<!DOCTYPE svg PUBLIC "-//W3C//DTD SVG 1.1//EN"
 "http://www.w3.org/Graphics/SVG/1.1/DTD/svg11.dtd">
<!-- Generated by graphviz version 2.49.3 (20211023.0002)
 -->
<!-- Pages: 1 -->
<svg width="692pt" height="608pt"
 viewBox="0.00 0.00 692.00 608.00" xmlns="http://www.w3.org/2000/svg" xmlns:xlink="http://www.w3.org/1999/xlink">
<g id="graph0" class="graph" transform="scale(1 1) rotate(0) translate(4 604)">
<polygon fill="white" stroke="transparent" points="-4,4 -4,-604 688,-604 688,4 -4,4"/>
<g id="clust2" class="cluster">
<title>cluster_cvs</title>
<polygon fill="none" stroke="black" points="138,-79 138,-248 334,-248 334,-79 138,-79"/>
<text text-anchor="middle" x="165.5" y="-228" font-family="Times,serif" font-size="20.00">CVS</text>
</g>
<g id="clust3" class="cluster">
<title>cluster_zgw</title>
<polygon fill="none" stroke="black" points="354,-166 354,-450 550,-450 550,-166 354,-166"/>
<text text-anchor="middle" x="385" y="-430" font-family="Times,serif" font-size="20.00">ZGW</text>
</g>
<!-- helper1 -->
<!-- helper2 -->
<!-- helper1&#45;&gt;helper2 -->
<!-- PDC -->
<g id="node5" class="node">
<title>PDC</title>
<polygon fill="none" stroke="black" points="326,-210 146,-210 146,-174 326,-174 326,-210"/>
<text text-anchor="middle" x="236" y="-188.3" font-family="Times,serif" font-size="14.00">PDC</text>
</g>
<!-- helper1&#45;&gt;PDC -->
<!-- helper3 -->
<!-- helper2&#45;&gt;helper3 -->
<!-- Portal -->
<g id="node9" class="node">
<title>Portal</title>
<polygon fill="none" stroke="black" points="386,-527 206,-527 206,-491 386,-491 386,-527"/>
<text text-anchor="middle" x="296" y="-505.3" font-family="Times,serif" font-size="14.00">Portal</text>
</g>
<!-- helper2&#45;&gt;Portal -->
<!-- OpenFormulieren -->
<g id="node6" class="node">
<title>OpenFormulieren</title>
<polygon fill="none" stroke="black" points="542,-412 362,-412 362,-376 542,-376 542,-412"/>
<text text-anchor="middle" x="452" y="-390.3" font-family="Times,serif" font-size="14.00">OpenFormulieren</text>
</g>
<!-- helper3&#45;&gt;OpenFormulieren -->
<!-- CVS -->
<g id="node4" class="node">
<title>CVS</title>
<polygon fill="none" stroke="black" points="326,-123 146,-123 146,-87 326,-87 326,-123"/>
<text text-anchor="middle" x="236" y="-101.3" font-family="Times,serif" font-size="14.00">CVS</text>
</g>
<!-- ObjectApi -->
<g id="node10" class="node">
<title>ObjectApi</title>
<polygon fill="none" stroke="black" points="326,-36 146,-36 146,0 326,0 326,-36"/>
<text text-anchor="middle" x="236" y="-14.3" font-family="Times,serif" font-size="14.00">ObjectApi</text>
</g>
<!-- CVS&#45;&gt;ObjectApi -->
<g id="edge13" class="edge">
<title>CVS&#45;&gt;ObjectApi</title>
<path fill="none" stroke="black" d="M236,-76.73C236,-67.06 236,-56.17 236,-46.48"/>
<polygon fill="black" stroke="black" points="232.5,-76.8 236,-86.8 239.5,-76.8 232.5,-76.8"/>
<polygon fill="black" stroke="black" points="239.5,-46.18 236,-36.18 232.5,-46.18 239.5,-46.18"/>
<text text-anchor="middle" x="319.5" y="-57.8" font-family="Times,serif" font-size="14.00">8 Haalt ingevulde waardes op</text>
</g>
<!-- PDC&#45;&gt;CVS -->
<g id="edge3" class="edge">
<title>PDC&#45;&gt;CVS</title>
<path fill="none" stroke="black" d="M236,-173.8C236,-162.16 236,-146.55 236,-133.24"/>
<polygon fill="black" stroke="black" points="239.5,-133.18 236,-123.18 232.5,-133.18 239.5,-133.18"/>
</g>
<!-- ProductAanvraagRepository -->
<g id="node7" class="node">
<title>ProductAanvraagRepository</title>
<polygon fill="none" stroke="black" points="542,-325 362,-325 362,-289 542,-289 542,-325"/>
<text text-anchor="middle" x="452" y="-303.3" font-family="Times,serif" font-size="14.00">ProductAanvraagRepository</text>
</g>
<!-- OpenFormulieren&#45;&gt;ProductAanvraagRepository -->
<g id="edge11" class="edge">
<title>OpenFormulieren&#45;&gt;ProductAanvraagRepository</title>
<path fill="none" stroke="black" d="M452,-375.8C452,-364.16 452,-348.55 452,-335.24"/>
<polygon fill="black" stroke="black" points="455.5,-335.18 452,-325.18 448.5,-335.18 455.5,-335.18"/>
<text text-anchor="middle" x="506.5" y="-346.8" font-family="Times,serif" font-size="14.00">5 ProductAanvraag</text>
</g>
<!-- OpenNotificatie -->
<g id="node8" class="node">
<title>OpenNotificatie</title>
<polygon fill="none" stroke="black" points="542,-210 362,-210 362,-174 542,-174 542,-210"/>
<text text-anchor="middle" x="452" y="-188.3" font-family="Times,serif" font-size="14.00">OpenNotificatie</text>
</g>
<!-- ProductAanvraagRepository&#45;&gt;OpenNotificatie -->
<g id="edge12" class="edge">
<title>ProductAanvraagRepository&#45;&gt;OpenNotificatie</title>
<path fill="none" stroke="black" d="M452,-288.84C452,-270.67 452,-241.72 452,-220.39"/>
<polygon fill="black" stroke="black" points="455.5,-220.32 452,-210.32 448.5,-220.32 455.5,-220.32"/>
<text text-anchor="middle" x="508" y="-259.8" font-family="Times,serif" font-size="14.00">6 Nieuwe Aanvraag</text>
</g>
<!-- OpenNotificatie&#45;&gt;CVS -->
<g id="edge14" class="edge">
<title>OpenNotificatie&#45;&gt;CVS</title>
<path fill="none" stroke="black" d="M408.55,-173.9C374.06,-160.33 325.69,-141.29 288.94,-126.83"/>
<polygon fill="black" stroke="black" points="289.97,-123.48 279.38,-123.07 287.41,-129.99 289.97,-123.48"/>
<text text-anchor="middle" x="391.5" y="-144.8" font-family="Times,serif" font-size="14.00">7 Notificatie</text>
</g>
<!-- Portal&#45;&gt;PDC -->
<g id="edge7" class="edge">
<title>Portal&#45;&gt;PDC</title>
<path fill="none" stroke="black" d="M278.57,-482.08C276.9,-479.08 275.33,-476.02 274,-473 252.55,-424.48 250.13,-410.43 242,-358 234.58,-310.16 234.34,-253.62 235.03,-220.69"/>
<polygon fill="black" stroke="black" points="275.62,-483.97 283.77,-490.75 281.63,-480.37 275.62,-483.97"/>
<polygon fill="black" stroke="black" points="238.54,-220.56 235.3,-210.47 231.54,-220.38 238.54,-220.56"/>
<text text-anchor="middle" x="293.5" y="-346.8" font-family="Times,serif" font-size="14.00">1 geefFormulierId</text>
</g>
<!-- Portal&#45;&gt;OpenFormulieren -->
<g id="edge8" class="edge">
<title>Portal&#45;&gt;OpenFormulieren</title>
<path fill="none" stroke="black" d="M392.43,-486.46C399.8,-482.67 406.78,-478.23 413,-473 428.65,-459.85 438.63,-438.88 444.58,-422"/>
<polygon fill="black" stroke="black" points="390.49,-483.5 382.91,-490.9 393.45,-489.84 390.49,-483.5"/>
<polygon fill="black" stroke="black" points="448.03,-422.71 447.78,-412.12 441.37,-420.55 448.03,-422.71"/>
<text text-anchor="middle" x="480.5" y="-461.8" font-family="Times,serif" font-size="14.00">2 geefFormulier(id)</text>
</g>
<!-- Portal&#45;&gt;OpenFormulieren -->
<g id="edge10" class="edge">
<title>Portal&#45;&gt;OpenFormulieren</title>
<path fill="none" stroke="black" d="M287.56,-490.9C283.76,-480.56 281.43,-467.56 288,-458 303.16,-435.93 327.21,-421.59 352.27,-412.27"/>
<polygon fill="black" stroke="black" points="353.6,-415.52 361.9,-408.94 351.31,-408.9 353.6,-415.52"/>
<text text-anchor="middle" x="346" y="-461.8" font-family="Times,serif" font-size="14.00">4 ingevuld formulier</text>
</g>
<!-- Portal&#45;&gt;Portal -->
<g id="edge9" class="edge">
<title>Portal&#45;&gt;Portal</title>
<path fill="none" stroke="black" d="M386.04,-515.6C406.77,-515.03 422,-512.83 422,-509 422,-505.83 411.56,-503.77 396.19,-502.84"/>
<polygon fill="black" stroke="black" points="396.18,-499.33 386.04,-502.4 395.88,-506.33 396.18,-499.33"/>
<text text-anchor="middle" x="489.5" y="-505.3" font-family="Times,serif" font-size="14.00">3 gebruiker vult form in</text>
</g>
</g>
</svg>
