<?xml version="1.0" encoding="UTF-8" standalone="no"?>
<!DOCTYPE svg PUBLIC "-//W3C//DTD SVG 1.1//EN"
 "http://www.w3.org/Graphics/SVG/1.1/DTD/svg11.dtd">
<!-- Generated by graphviz version 2.49.3 (20211023.0002)
 -->
<!-- Pages: 1 -->
<svg width="636pt" height="409pt"
 viewBox="0.00 0.00 636.00 409.00" xmlns="http://www.w3.org/2000/svg" xmlns:xlink="http://www.w3.org/1999/xlink">
<g id="graph0" class="graph" transform="scale(1 1) rotate(0) translate(4 405)">
<polygon fill="white" stroke="transparent" points="-4,4 -4,-405 632,-405 632,4 -4,4"/>
<g id="clust2" class="cluster">
<title>cluster_laag4</title>
<polygon fill="none" stroke="black" points="8,-210 8,-285 366,-285 366,-210 8,-210"/>
<text text-anchor="middle" x="58" y="-269.8" font-family="Times,serif" font-size="14.00">Laag 4: Proces</text>
</g>
<g id="clust1" class="cluster">
<title>cluster_laag5</title>
<polygon fill="none" stroke="black" points="8,-318 8,-393 366,-393 366,-318 8,-318"/>
<text text-anchor="middle" x="65.5" y="-377.8" font-family="Times,serif" font-size="14.00">Laag 5: Interactie</text>
</g>
<g id="clust3" class="cluster">
<title>cluster_laag2</title>
<polygon fill="none" stroke="black" points="8,-102 8,-177 366,-177 366,-102 8,-102"/>
<text text-anchor="middle" x="60" y="-161.8" font-family="Times,serif" font-size="14.00">Laag 2: Service</text>
</g>
<g id="clust4" class="cluster">
<title>cluster_4</title>
<polygon fill="none" stroke="black" points="8,-8 8,-83 366,-83 366,-8 8,-8"/>
<text text-anchor="middle" x="50.5" y="-67.8" font-family="Times,serif" font-size="14.00">Laag 1 Data</text>
</g>
<!-- PWA -->
<g id="node1" class="node">
<title>PWA</title>
<polygon fill="none" stroke="black" points="178,-362 106,-362 106,-326 178,-326 178,-362"/>
<text text-anchor="middle" x="142" y="-340.3" font-family="Times,serif" font-size="14.00">PWA</text>
</g>
<!-- BFF -->
<g id="node5" class="node">
<title>BFF</title>
<polygon fill="none" stroke="black" points="178,-254 106,-254 106,-218 178,-218 178,-254"/>
<text text-anchor="middle" x="142" y="-232.3" font-family="Times,serif" font-size="14.00">BFF</text>
</g>
<!-- PWA&#45;&gt;BFF -->
<g id="edge1" class="edge">
<title>PWA&#45;&gt;BFF</title>
<path fill="none" stroke="black" d="M142,-325.97C142,-309.38 142,-283.88 142,-264.43"/>
<polygon fill="black" stroke="black" points="145.5,-264.34 142,-254.34 138.5,-264.34 145.5,-264.34"/>
<text text-anchor="middle" x="156" y="-296.8" font-family="Times,serif" font-size="14.00">JWT</text>
</g>
<!-- KeyCloak -->
<g id="node17" class="node">
<title>KeyCloak</title>
<path fill="none" stroke="black" d="M449.5,-250.73C449.5,-252.53 433.14,-254 413,-254 392.86,-254 376.5,-252.53 376.5,-250.73 376.5,-250.73 376.5,-221.27 376.5,-221.27 376.5,-219.47 392.86,-218 413,-218 433.14,-218 449.5,-219.47 449.5,-221.27 449.5,-221.27 449.5,-250.73 449.5,-250.73"/>
<path fill="none" stroke="black" d="M449.5,-250.73C449.5,-248.92 433.14,-247.45 413,-247.45 392.86,-247.45 376.5,-248.92 376.5,-250.73"/>
<text text-anchor="middle" x="413" y="-232.3" font-family="Times,serif" font-size="14.00">KeyCloak</text>
</g>
<!-- PWA&#45;&gt;KeyCloak -->
<g id="edge9" class="edge">
<title>PWA&#45;&gt;KeyCloak</title>
<path fill="none" stroke="black" stroke-dasharray="1,5" d="M180.09,-321.31C182.41,-320.16 184.73,-319.04 187,-318 216.27,-304.59 223.51,-299.74 255,-293 280.05,-287.64 346.99,-296.25 370,-285 383.67,-278.31 394.95,-265.19 402.52,-254.35"/>
<polygon fill="black" stroke="black" points="178.46,-318.22 171.19,-325.93 181.68,-324.43 178.46,-318.22"/>
<text text-anchor="middle" x="277.5" y="-298" font-family="Times,serif" font-size="10.00">Geeft JWT</text>
</g>
<!-- Filler1 -->
<g id="node2" class="node">
<title>Filler1</title>
</g>
<!-- Console -->
<g id="node3" class="node">
<title>Console</title>
<polygon fill="none" stroke="black" points="358,-362 286,-362 286,-326 358,-326 358,-362"/>
<text text-anchor="middle" x="322" y="-341.5" font-family="Times,serif" font-size="10.00">GZAC Console</text>
</g>
<!-- GZAC -->
<g id="node7" class="node">
<title>GZAC</title>
<polygon fill="none" stroke="black" points="358,-254 286,-254 286,-218 358,-218 358,-254"/>
<text text-anchor="middle" x="322" y="-232.3" font-family="Times,serif" font-size="14.00">GZAC</text>
</g>
<!-- Console&#45;&gt;GZAC -->
<g id="edge3" class="edge">
<title>Console&#45;&gt;GZAC</title>
<path fill="none" stroke="black" d="M312.32,-325.71C309.74,-320.22 307.31,-314.01 306,-308 302.81,-293.34 306.02,-277.01 310.38,-263.7"/>
<polygon fill="black" stroke="black" points="313.71,-264.79 313.85,-254.2 307.13,-262.39 313.71,-264.79"/>
<text text-anchor="middle" x="320" y="-296.8" font-family="Times,serif" font-size="14.00">JWT</text>
</g>
<!-- Console&#45;&gt;KeyCloak -->
<g id="edge8" class="edge">
<title>Console&#45;&gt;KeyCloak</title>
<path fill="none" stroke="black" stroke-dasharray="1,5" d="M343.19,-318.32C360.03,-298.7 383.18,-271.74 398.11,-254.34"/>
<polygon fill="black" stroke="black" points="340.48,-316.1 336.62,-325.97 345.79,-320.66 340.48,-316.1"/>
<text text-anchor="middle" x="385" y="-298" font-family="Times,serif" font-size="10.00">GeeftJWT</text>
</g>
<!-- Filler0 -->
<!-- ZGW -->
<g id="node10" class="node">
<title>ZGW</title>
<polygon fill="none" stroke="black" points="268,-146 196,-146 196,-110 268,-110 268,-146"/>
<text text-anchor="middle" x="232" y="-124.3" font-family="Times,serif" font-size="14.00">ZGW</text>
</g>
<!-- BFF&#45;&gt;ZGW -->
<g id="edge2" class="edge">
<title>BFF&#45;&gt;ZGW</title>
<path fill="none" stroke="black" d="M156.46,-217.97C171.13,-200.69 194.01,-173.74 210.75,-154.03"/>
<polygon fill="black" stroke="black" points="213.47,-156.23 217.28,-146.34 208.14,-151.7 213.47,-156.23"/>
<text text-anchor="middle" x="199" y="-188.8" font-family="Times,serif" font-size="14.00">JWT</text>
</g>
<!-- b -->
<g id="node11" class="node">
<title>b</title>
</g>
<!-- BFF&#45;&gt;b -->
<!-- Filler2 -->
<g id="node6" class="node">
<title>Filler2</title>
</g>
<!-- GZAC&#45;&gt;ZGW -->
<g id="edge4" class="edge">
<title>GZAC&#45;&gt;ZGW</title>
<path fill="none" stroke="black" d="M307.54,-217.97C292.87,-200.69 269.99,-173.74 253.25,-154.03"/>
<polygon fill="black" stroke="black" points="255.86,-151.7 246.72,-146.34 250.53,-156.23 255.86,-151.7"/>
<text text-anchor="middle" x="304" y="-188.8" font-family="Times,serif" font-size="14.00">JWT</text>
</g>
<!-- Filler3 -->
<!-- a -->
<g id="node9" class="node">
<title>a</title>
</g>
<!-- Datalaag -->
<g id="node14" class="node">
<title>Datalaag</title>
<path fill="none" stroke="black" d="M268,-48.73C268,-50.53 251.86,-52 232,-52 212.14,-52 196,-50.53 196,-48.73 196,-48.73 196,-19.27 196,-19.27 196,-17.47 212.14,-16 232,-16 251.86,-16 268,-17.47 268,-19.27 268,-19.27 268,-48.73 268,-48.73"/>
<path fill="none" stroke="black" d="M268,-48.73C268,-46.92 251.86,-45.45 232,-45.45 212.14,-45.45 196,-46.92 196,-48.73"/>
<text text-anchor="middle" x="232" y="-30.3" font-family="Times,serif" font-size="14.00">Datalaag</text>
</g>
<!-- ZGW&#45;&gt;Datalaag -->
<g id="edge5" class="edge">
<title>ZGW&#45;&gt;Datalaag</title>
<path fill="none" stroke="black" d="M232,-109.7C232,-96.46 232,-77.95 232,-62.66"/>
<polygon fill="black" stroke="black" points="235.5,-62.23 232,-52.23 228.5,-62.23 235.5,-62.23"/>
</g>
<!-- Filler4 -->
<g id="node12" class="node">
<title>Filler4</title>
</g>
<!-- c -->
<!-- d -->
<!-- Filler5 -->
<!-- KeyCloak&#45;&gt;ZGW -->
<g id="edge7" class="edge">
<title>KeyCloak&#45;&gt;ZGW</title>
<path fill="none" stroke="black" stroke-dasharray="1,5" d="M376.19,-213.45C374.1,-212.27 372.03,-211.12 370,-210 348.93,-198.4 344.77,-192.75 322,-185 302.77,-178.45 294.86,-186.68 277,-177 263.54,-169.7 251.85,-156.9 243.75,-146.34"/>
<polygon fill="black" stroke="black" points="374.93,-216.76 385.35,-218.67 378.4,-210.68 374.93,-216.76"/>
<text text-anchor="middle" x="381.5" y="-190" font-family="Times,serif" font-size="10.00">Valideert JWT</text>
</g>
<!-- FillerX -->
<!-- FillerX&#45;&gt;KeyCloak -->
<!-- FillerY -->
<!-- FillerY&#45;&gt;KeyCloak -->
<!-- FillerZ -->
<!-- FillerZ&#45;&gt;KeyCloak -->
</g>
</svg>
